<svg height="64" viewBox="0 0 1024 1024" width="64" xmlns="http://www.w3.org/2000/svg"><path d="m896 422.4c0-217.6-172.8-390.4-384-390.4s-384 172.8-384 384v6.4c-38.4 12.8-64 44.8-64 89.6v128c0 51.2 44.8 96 96 96s96-44.8 96-96v-128c0-44.8-25.6-76.8-64-89.6v-6.4c0-179.2 140.8-320 320-320s320 140.8 320 320v6.4c-38.4 12.8-64 51.2-64 89.6v128c0 51.2 44.8 96 96 96s96-44.8 96-96v-128c0-44.8-25.6-76.8-64-89.6zm-256 505.6v-32c0-19.2-12.8-32-32-32h-128c-19.2 0-32 12.8-32 32v64c0 19.2 12.8 32 32 32h128c160 0 288-115.2 288-256h-64c0 96-83.2 179.2-192 192z" fill="#46a9fd"/></svg>